Coordinates
version=1
nRows=14
nColumns=36
inDegrees=yes

Units are S.I. units (second, meters, Newtons, ...)
If the header above contains a line with 'inDegrees', this indicates whether rotational values are in degrees (yes) or radians (no).

endheader
time	pelvis_tilt	pelvis_list	pelvis_rotation	pelvis_tx	pelvis_ty	pelvis_tz	hip_flexion_r	hip_adduction_r	hip_rotation_r	knee_angle_r	knee_angle_r_beta	ankle_angle_r	subtalar_angle_r	mtp_angle_r	hip_flexion_l	hip_adduction_l	hip_rotation_l	knee_angle_l	knee_angle_l_beta	ankle_angle_l	subtalar_angle_l	mtp_angle_l	lumbar_extension	lumbar_bending	lumbar_rotation	arm_flex_r	arm_add_r	arm_rot_r	elbow_flex_r	pro_sup_r	arm_flex_l	arm_add_l	arm_rot_l	elbow_flex_l	pro_sup_l
      2.40000000	      0.55930859	      2.18704821	     -0.22859312	      0.08985972	      1.14855873	      0.08099055	      2.25974226	     -2.21328871	     -6.70853375	      1.33404650	      0.02328350	     10.24251147	      9.58020279	     -7.49999987	      1.55285203	      2.36630336	     -1.16439461	      2.14133564	      0.03737336	      7.03095205	      9.83956890	     -7.49999987	      1.30633475	     -1.26980508	     -5.41963178	      9.64095635	    -17.28775736	     50.95559666	     80.15344418	     86.11547310	     -4.04603181	    -19.30531719	     37.62042721	     82.82035638	     98.98899084
      2.41666670	      0.56685006	      2.19004175	     -0.32807237	      0.08954483	      1.14520726	      0.08140576	      2.25884918	     -2.23453544	     -6.98639033	      1.29725122	      0.02264131	     10.18178686	      9.59271710	     -7.49999987	      1.52900165	      2.35577106	     -1.32126304	      2.10911383	      0.03681098	      6.86992227	      9.57746228	     -7.49999987	      1.15422758	     -1.30253360	     -5.31723139	      9.55979249	    -17.27638634	     50.84645885	     80.56498669	     85.48556609	     -4.05013030	    -19.21767052	     37.56488971	     82.90146721	     97.82005570
      2.43333330	      0.52633720	      2.23900706	     -0.33613708	      0.08915435	      1.14317636	      0.08139517	      2.36484136	     -2.30511482	     -7.11125988	      1.23517217	      0.02155782	     10.13665288	      9.37766165	     -7.49999987	      1.58047035	      2.37813161	     -1.64669128	      2.08017857	      0.03630597	      6.77907998	      9.79573632	     -7.49999987	      1.10666416	     -1.37988083	     -5.30548923	      9.58651521	    -17.22615549	     50.85876177	     80.71820994	     85.59958286	     -3.81038671	    -19.15443636	     37.65155231	     82.88401065	     98.30604278
      2.45000000	      0.44778731	      2.33622418	     -0.34157434	      0.08921613	      1.14404862	      0.08177651	      2.55306578	     -2.39578896	     -7.00027260	      1.13750346	      0.01985318	     10.29001771	      9.51211189	     -7.49999987	      1.73337611	      2.45271713	     -1.51356297	      1.99346475	      0.03479252	      6.84685036	     10.14310348	     -7.49999987	      1.06989108	     -1.55162316	     -5.25422345	      9.70974603	    -17.28079475	     51.16267775	     81.10021283	     82.38653758	     -3.49994761	    -19.36984252	     38.36060406	     83.23406613	     94.02462918
      2.46666670	      0.38586506	      2.33336332	     -0.25090749	      0.08961836	      1.14417692	      0.08183275	      2.73050835	     -2.36015980	     -6.82481436	      1.06067010	      0.01851219	     10.44666415	      9.64023104	     -7.49999987	      1.89507972	      2.43565906	     -1.22593971	      1.85711502	      0.03241277	      7.16862420	     10.36765157	     -7.49999987	      1.02083356	     -1.57818481	     -5.51013106	      9.82412717	    -17.15608099	     50.75883689	     81.05064155	     85.75586237	     -3.55574458	    -19.31484752	     37.42030175	     83.51144716	     97.58519093
      2.48333330	      0.41734198	      2.35488222	     -0.16646804	      0.08996872	      1.14288747	      0.08188199	      2.74029168	     -2.31742979	     -6.37317407	      1.00155486	      0.01748043	     10.40954232	      9.33577092	     -7.49999987	      1.89858770	      2.42959104	     -1.19332715	      1.73332362	      0.03025220	      7.38803743	     10.41327255	     -7.49999987	      0.89561761	     -1.65295610	     -5.40138336	      9.69413988	    -17.28298492	     50.67008859	     81.36658601	     82.00331938	     -3.09671863	    -19.48342898	     37.71763965	     83.86618299	     92.24213324
      2.50000000	      0.28235884	      2.34976670	     -0.02964863	      0.08847670	      1.14269911	      0.08286764	      2.87083669	     -2.22921470	     -6.40866852	      1.06102957	      0.01851846	     10.55315454	      9.80909794	     -7.49999987	      2.13811406	      2.36002376	     -1.15372022	      1.76455120	      0.03079723	      7.57137810	     10.45665025	     -7.49999987	      0.90106468	     -1.74568728	     -5.51134799	      9.38775024	    -17.34749035	     50.09613434	     81.59267892	     85.78010739	     -3.08302319	    -19.58680364	     37.33921990	     84.14606034	     97.09035843
      2.51666670	      0.30861967	      2.30219889	      0.04227137	      0.08889872	      1.14370117	      0.08401202	      2.75836711	     -2.12946075	     -6.44960648	      1.21753034	      0.02124991	     10.47062028	      9.43426063	     -7.49999987	      2.06175209	      2.29394675	     -1.30883652	      1.82683259	      0.03188424	      7.45776836	     10.40050007	     -7.49999987	      0.71867436	     -1.79239598	     -5.68780869	      9.46098156	    -17.30582441	     50.11271665	     81.50014541	     85.75271374	     -2.98339405	    -19.64405632	     36.71494760	     84.59237442	     96.81453284
      2.53333330	      0.24954380	      2.24093662	     -0.04880554	      0.08959559	      1.14273878	      0.08386647	      2.78117499	     -2.08851651	     -6.86935876	      1.38046141	      0.02409360	     10.61109091	      9.60825136	     -7.49999987	      2.05901781	      2.23154888	     -1.66381021	      1.92751233	      0.03364144	      7.58771431	     10.88762331	     -7.49999987	      0.75294362	     -1.80047871	     -5.32764378	      9.35661373	    -17.51858983	     50.31583903	     81.86735779	     78.53923318	     -2.67819328	    -19.90394053	     37.01628698	     85.21044777	     87.83364823
      2.55000000	      0.32525704	      2.13954200	     -0.10652321	      0.08891383	      1.14321780	      0.08510914	      2.63800428	     -1.94254431	     -6.48254731	      1.43778151	      0.02509402	     10.28419374	      8.40371720	     -7.49999987	      1.92372918	      2.14942594	     -1.34747154	      1.92284789	      0.03356003	      7.42947210	     10.31098861	     -7.49999987	      0.48676098	     -1.76774702	     -5.40099198	      9.20692867	    -17.75676561	     50.25416169	     82.26210893	     77.16124086	     -2.75033686	    -20.05065207	     36.90407752	     85.72976902	     85.78735811
      2.56666670	      0.08747200	      2.06726053	     -0.13727894	      0.09109256	      1.14462474	      0.08398579	      2.86706357	     -1.90220524	     -6.97628599	      1.59309635	      0.02780478	     10.40515694	      8.35008717	     -7.49999987	      2.11344942	      2.07150814	     -1.57303986	      2.03975476	      0.03560044	      7.56870711	     10.53501160	     -7.49999987	      0.56924337	     -1.72900034	     -6.11328842	      9.04504192	    -18.01347481	     49.95606469	     82.53697889	     85.92525335	     -3.95690534	    -19.80737045	     34.10777028	     86.54163081	     96.25829702
      2.58333330	      0.03059206	      1.94388222	     -0.18548688	      0.09242074	      1.14209273	      0.08434632	      2.84210827	     -1.72434271	     -6.86335609	      1.67084694	      0.02916178	     10.53567012	      8.06737224	     -7.49999987	      2.11414903	      1.91577253	     -1.39859255	      2.08269584	      0.03634990	      7.78336309	     10.45525965	     -7.49999987	      0.49626471	     -1.66540628	     -6.04587603	      8.13887195	    -18.77453630	     49.15093551	     83.74803775	     86.13748949	     -4.09370334	    -19.78938527	     33.45603851	     87.14388690	     96.54534677
      2.60000000	     -0.15659265	      1.94978112	     -0.23559251	      0.09020389	      1.14951401	      0.08618772	      3.11749340	     -1.59784970	     -6.84762334	      1.79975541	      0.03141166	     10.56461209	      8.07597147	     -7.49999987	      2.32339451	      1.87632057	     -1.45264247	      2.05869563	      0.03593102	      7.63478536	     10.42033184	     -7.49999987	      0.55750805	     -1.76455075	     -6.15081227	      7.22550630	    -19.55661235	     48.90552014	     84.57064537	     86.13228176	     -4.48983267	    -19.80385912	     32.78664506	     87.30007427	     96.44540306
      2.61666670	     -0.15115612	      1.80173202	     -0.24048324	      0.09146506	      1.14799752	      0.08681053	      3.05290041	     -1.33994157	     -6.76565587	      1.77738584	      0.03102124	     10.52418428	      8.04203720	     -7.49999987	      2.31225374	      1.67274686	     -1.38318839	      2.00051503	      0.03491557	      7.42709152	     10.47074221	     -7.49999987	      0.32855644	     -1.65670012	     -6.29194207	      6.25669721	    -20.26827166	     48.03237398	     85.57691899	     86.59786405	     -5.18332648	    -19.62395317	     31.34985730	     87.90670731	     96.22612658
